<?xml version="1.0" encoding="utf-8"?>
<!-- Generator: Adobe Illustrator 26.5.0, SVG Export Plug-In . SVG Version: 6.00 Build 0)  -->
<svg version="1.1" id="Layer_1" xmlns="http://www.w3.org/2000/svg" xmlns:xlink="http://www.w3.org/1999/xlink" x="0px" y="0px"
	 viewBox="0 0 122.9 122.9" style="enable-background:new 0 0 122.9 122.9;" xml:space="preserve">
<style type="text/css">
	.st0{fill:#FFFFFF;}
</style>
<path class="st0" d="M61.5,0C44.8,0,42.7,0.1,36.1,0.4C31,0.5,26,1.4,21.2,3.2c-4.1,1.5-7.8,4-10.9,7.1c-3.1,3.1-5.5,6.8-7.1,10.9
	C1.4,26,0.5,31,0.4,36.1C0.1,42.7,0,44.8,0,61.4s0.1,18.8,0.4,25.3c0.1,5.1,1.1,10.1,2.9,14.9c1.5,4.1,4,7.8,7.1,10.9
	c3.1,3.1,6.8,5.6,10.9,7.1c4.8,1.8,9.8,2.7,14.9,2.8c6.5,0.3,8.6,0.4,25.3,0.4s18.8-0.1,25.3-0.4c5.1-0.1,10.1-1.1,14.9-2.8
	c8.3-3.2,14.8-9.7,18-18c1.8-4.8,2.7-9.8,2.9-14.9c0.3-6.6,0.4-8.6,0.4-25.3s-0.1-18.8-0.4-25.3c-0.1-5.1-1.1-10.1-2.9-14.9
	c-1.5-4.1-4-7.8-7.1-10.9c-3.1-3.1-6.8-5.5-10.9-7.1c-4.8-1.8-9.8-2.7-15-2.8C80.2,0.1,78.1,0,61.5,0L61.5,0z M55.9,11.1h5.5
	c16.4,0,18.3,0.1,24.8,0.4c3.9,0,7.8,0.8,11.4,2.1c2.7,1,5.1,2.6,7.1,4.6c2,2,3.6,4.4,4.6,7.1c1.4,3.7,2.1,7.5,2.1,11.4
	c0.3,6.5,0.4,8.4,0.4,24.8s-0.1,18.3-0.4,24.8c0,3.9-0.8,7.7-2.1,11.4c-2.1,5.4-6.3,9.6-11.7,11.7c-3.7,1.4-7.5,2.1-11.4,2.1
	c-6.5,0.3-8.4,0.4-24.8,0.4s-18.3-0.1-24.8-0.4c-3.9,0-7.8-0.8-11.4-2.1c-2.7-1-5.1-2.5-7.1-4.6c-2-2-3.6-4.4-4.6-7.1
	c-1.4-3.7-2.1-7.5-2.1-11.4c-0.3-6.5-0.4-8.4-0.4-24.8s0.1-18.3,0.4-24.8c0-3.9,0.8-7.8,2.1-11.4c1-2.7,2.6-5.1,4.6-7.1
	c2-2,4.4-3.6,7.1-4.6c3.7-1.4,7.5-2.1,11.4-2.1C42.3,11.1,44.5,11.1,55.9,11.1L55.9,11.1z M94.2,21.3c-4.1,0-7.4,3.3-7.4,7.4
	s3.3,7.4,7.4,7.4c4.1,0,7.4-3.3,7.4-7.4c0,0,0,0,0,0C101.6,24.6,98.3,21.3,94.2,21.3C94.2,21.3,94.2,21.3,94.2,21.3z M61.5,29.9
	C44,29.9,29.9,44,29.9,61.4S44,93,61.5,93S93,78.9,93,61.4l0,0C93,44,78.9,29.9,61.5,29.9z M61.5,41c11.3,0,20.5,9.1,20.5,20.4
	c0,11.3-9.1,20.5-20.4,20.5C50.2,81.9,41,72.8,41,61.5c0,0,0,0,0,0C41,50.2,50.2,41,61.5,41L61.5,41z"/>
</svg>
