<?xml version="1.0" encoding="utf-8"?>
<!-- Generator: Adobe Illustrator 26.5.0, SVG Export Plug-In . SVG Version: 6.00 Build 0)  -->
<svg version="1.1"
	 id="Layer_1" text-rendering="geometricPrecision" image-rendering="optimizeQuality" shape-rendering="geometricPrecision"
	 xmlns="http://www.w3.org/2000/svg" xmlns:xlink="http://www.w3.org/1999/xlink" x="0px" y="0px" viewBox="0 0 64 64"
	 style="enable-background:new 0 0 64 64;" xml:space="preserve">
<style type="text/css">
	.st0{fill-rule:evenodd;clip-rule:evenodd;fill:#FFFFFF;}
</style>
<path class="st0" d="M58,0H6C2.7,0,0,2.7,0,6v52c0,3.3,2.7,6,6,6h52c3.3,0,6-2.7,6-6V6C64,2.7,61.3,0,58,0z M24,52h-8V24h8V52z
	 M20,20c-2.2,0-4-1.8-4-4c0-2.2,1.8-4,4-4c2.2,0,4,1.8,4,4C24,18.2,22.2,20,20,20z M52,52h-8V36c0-2.2-1.8-4-4-4c-2.2,0-4,1.8-4,4
	v16h-8V24h8v5c1.6-2.3,4.2-5,7-5c5,0,9,4.5,9,10L52,52L52,52z"/>
</svg>
