<?xml version="1.0" encoding="utf-8"?>
<!-- Generator: Adobe Illustrator 26.5.0, SVG Export Plug-In . SVG Version: 6.00 Build 0)  -->
<svg version="1.1"
	 id="Layer_1" text-rendering="geometricPrecision" image-rendering="optimizeQuality" shape-rendering="geometricPrecision"
	 xmlns="http://www.w3.org/2000/svg" xmlns:xlink="http://www.w3.org/1999/xlink" x="0px" y="0px" viewBox="0 0 8192 8192"
	 style="enable-background:new 0 0 8192 8192;" xml:space="preserve">
<style type="text/css">
	.st0{fill-rule:evenodd;clip-rule:evenodd;fill:#FFFFFF;}
</style>
<path class="st0" d="M8191.9,1555.5c-301.2,134.7-625.6,224.2-964.4,264.1c347.1-207.9,612.5-537.3,739.2-929.4
	c-324.4,191.9-685,332.6-1067,407.9c-307.2-326.4-743.5-529.3-1226.8-529.3c-928,0-1679.4,751.8-1679.4,1679.3
	c0,130.9,14.5,259,43,382.5c-1396.4-70.8-2634.4-739.3-3463.1-1756.4c-148.7,256.5-227.3,548-227.3,844.6v0.2
	c0,582.4,295.7,1097.4,746.8,1397.8c-275.3-8.2-534.3-85-761.6-209.4v21c0,814.4,578.9,1494,1348,1647.6
	c-140.9,38.3-289.7,59.4-442.9,59.4c-108.6,0-213.1-11.2-317.2-30.1c214.8,667,835,1153.2,1569.4,1167.4
	c-575.8,451.1-1299,719.7-2087.5,719.7c-136.1,0-268.6-8.3-401-24.2c745.3,478.2,1628.2,755.1,2576.6,755.1
	c3090.1,0,4781.3-2560.8,4781.3-4781.1c0-73.8-1.6-145.3-4.7-217.5c328.2-234.8,612.7-531.1,838-868.3l0.8-0.8L8191.9,1555.5
	L8191.9,1555.5z"/>
</svg>
