<?xml version="1.0" standalone="no"?>
<!DOCTYPE svg PUBLIC "-//W3C//DTD SVG 20010904//EN"
 "http://www.w3.org/TR/2001/REC-SVG-20010904/DTD/svg10.dtd">
<svg version="1.0" xmlns="http://www.w3.org/2000/svg"
 width="512.000000pt" height="512.000000pt" viewBox="0 0 512.000000 512.000000"
 preserveAspectRatio="xMidYMid meet">
<metadata>
Created by potrace 1.14, written by Peter Selinger 2001-2017
</metadata>
<g transform="translate(0.000000,512.000000) scale(0.100000,-0.100000)"
fill="#000000" stroke="none">
<path d="M29 5091 l-29 -29 0 -2502 0 -2502 29 -29 29 -29 2502 0 2502 0 29
29 29 29 0 2502 0 2502 -29 29 -29 29 -2502 0 -2502 0 -29 -29z m2162 -607
c63 -32 135 -104 162 -164 31 -67 30 -207 -2 -272 -73 -149 -227 -225 -382
-188 -73 17 -98 31 -153 85 -70 67 -100 140 -100 240 -1 99 25 162 92 228 80
79 121 95 235 96 86 1 104 -2 148 -25z m139 -1347 l0 -414 68 66 c89 88 124
113 207 155 124 61 212 81 365 81 110 0 151 -4 224 -23 161 -43 324 -136 422
-243 114 -125 226 -351 249 -504 4 -22 11 -58 16 -80 12 -57 11 -450 -2 -521
-6 -32 -12 -66 -13 -74 -4 -35 -59 -193 -92 -260 -52 -107 -102 -176 -190
-261 -115 -110 -200 -158 -364 -207 -75 -22 -104 -25 -245 -25 -147 -1 -168 2
-253 27 -160 48 -298 129 -386 226 -21 23 -39 40 -40 38 -2 -1 -8 -25 -15 -51
-42 -174 -213 -359 -391 -422 -116 -42 -381 -60 -501 -34 l-51 11 6 97 c4 53
9 137 11 186 3 50 7 108 11 130 l6 40 112 0 c106 0 115 2 154 28 61 40 98 97
116 177 14 60 16 206 16 1169 l0 1101 280 0 280 0 0 -413z"/>
<path d="M2715 2523 c-57 -13 -149 -45 -187 -64 -59 -30 -137 -92 -170 -136
l-28 -37 0 -370 0 -371 43 -45 c120 -129 338 -200 520 -170 153 24 292 130
361 271 19 41 37 85 40 99 2 14 10 48 16 75 16 65 17 215 2 285 -7 30 -14 65
-16 76 -10 53 -77 173 -125 226 -68 75 -128 113 -224 143 -74 24 -174 31 -232
18z"/>
</g>
</svg>
